<svg width="90" height="138" viewBox="0 0 90 138" fill="none" xmlns="http://www.w3.org/2000/svg">
<path d="M0.662354 45.2714C0.662354 56.7738 5.04743 67.6772 13.0136 75.9733C19.375 82.6006 22.8888 91.3836 22.9113 100.721H19.5736C17.7959 100.721 16.3513 102.165 16.3513 103.943V123.024C16.3513 124.802 17.7959 126.246 19.5736 126.246H27.3027V134.824C27.3027 136.064 28.3053 137.067 29.5449 137.067H60.4583C61.6979 137.067 62.7005 136.064 62.7005 134.824V126.246H70.4296C72.2074 126.246 73.652 124.802 73.652 123.024V120.618C73.652 119.379 72.6494 118.376 71.4098 118.376C70.1702 118.376 69.1676 119.379 69.1676 120.618V121.762H60.4583H29.5449H20.8356V115.724H37.0627C38.3023 115.724 39.3049 114.722 39.3049 113.482C39.3049 112.242 38.3023 111.24 37.0627 111.24H20.8356V105.202H69.1676V106.899C69.1676 108.139 70.1702 109.142 71.4098 109.142C72.6494 109.142 73.652 108.139 73.652 106.899V103.943C73.652 102.165 72.2074 100.721 70.4296 100.721H64.8594C64.8562 100.721 64.853 100.721 64.8498 100.721H47.2422V71.0661L53.783 63.2601C54.9938 63.4715 56.2077 63.5772 57.4121 63.5772C62.8831 63.5772 68.1554 61.4279 72.1465 57.4368C77.3516 52.2318 79.424 44.8486 77.6815 37.6864C77.4829 36.8728 76.8455 36.2354 76.0319 36.0368C68.8729 34.3007 61.4897 36.3699 56.2846 41.575C51.355 46.5046 49.2377 53.3913 50.5062 60.1883L45 66.7547L39.4938 60.1851C40.7623 53.3849 38.645 46.5014 33.7154 41.5718C28.5103 36.3667 21.1303 34.2975 13.9681 36.0336C13.1513 36.2322 12.5171 36.8664 12.3185 37.6832C10.5792 44.8421 12.6484 52.2253 17.8535 57.4336C21.8446 61.4247 27.117 63.574 32.5879 63.574C33.7923 63.574 35.0031 63.4683 36.217 63.2569L42.7578 71.0629V100.717H27.3956C27.37 90.2208 23.4142 80.3328 16.2488 72.8663C9.08978 65.4094 5.14673 55.6111 5.14673 45.2714C5.14673 34.5729 9.32681 24.5311 16.9182 16.9942C24.5064 9.45723 34.5738 5.35402 45.2819 5.42129C66.4065 5.56543 84.1518 22.8495 84.8341 43.9485C85.18 54.6854 81.3138 64.8873 73.9434 72.6677C68.7288 78.1739 65.1284 84.9229 63.5333 92.1811C63.2674 93.3919 64.033 94.5867 65.2438 94.8525C66.4513 95.1184 67.6493 94.3529 67.9152 93.1421C69.3342 86.6814 72.5437 80.6659 77.201 75.7523C85.401 67.0943 89.7028 55.7488 89.3184 43.8043C88.9469 32.3468 84.187 21.6035 75.9166 13.5476C67.6493 5.49496 56.7811 1.01699 45.3139 0.936913C33.4079 0.863241 22.2034 5.4277 13.7599 13.8135C5.31329 22.1993 0.662354 33.3718 0.662354 45.2714ZM58.2161 126.246V132.582H31.7871V126.246H58.2161ZM59.4557 44.7429C63.213 40.9856 68.4148 39.3072 73.5975 40.1175C74.4111 45.3034 72.7327 50.5053 68.9754 54.2625C65.2181 58.0198 60.0163 59.6982 54.8304 58.8847C54.02 53.702 55.6984 48.5001 59.4557 44.7429ZM21.0246 54.2625C17.2674 50.5053 15.5889 45.3034 16.4025 40.1175C21.5884 39.3072 26.787 40.9856 30.5443 44.7429C34.3016 48.5001 35.98 53.702 35.1696 58.8847C29.987 59.6982 24.7819 58.0198 21.0246 54.2625Z" fill="#7C6A0A"/>
<path d="M60.8874 18.4418C59.824 17.8076 58.4466 18.1535 57.8124 19.217C57.1782 20.2804 57.5242 21.6578 58.5876 22.292C58.7894 22.4137 58.988 22.5354 59.1866 22.6603C59.5581 22.8974 59.9745 23.0095 60.3845 23.0095C61.1277 23.0095 61.8548 22.6411 62.2808 21.9653C62.9438 20.9178 62.6331 19.5341 61.5857 18.871C61.3551 18.7269 61.1213 18.5828 60.8874 18.4418Z" fill="#7C6A0A"/>
<path d="M45.2146 14.0664H45C37.7096 14.0664 30.6083 16.6449 25.0125 21.3247C24.0611 22.1191 23.9362 23.5316 24.7306 24.483C25.1726 25.0147 25.81 25.287 26.4507 25.287C26.9567 25.287 27.4692 25.1172 27.8889 24.7648C32.6839 20.7577 38.7603 18.5508 44.9935 18.5508H45.1921C46.7681 18.5604 48.3472 18.7141 49.8879 18.9992C51.1051 19.2266 52.2775 18.4227 52.5049 17.2055C52.7323 15.9883 51.9283 14.8159 50.7111 14.5885C48.9078 14.2554 47.0596 14.0792 45.2146 14.0664Z" fill="#7C6A0A"/>
<path d="M73.4789 113.703C73.4244 113.565 73.354 113.437 73.2739 113.315C73.1906 113.19 73.0977 113.078 72.9952 112.972C72.8895 112.87 72.7774 112.777 72.6525 112.694C72.5308 112.614 72.4026 112.543 72.2649 112.489C72.1304 112.431 71.9894 112.389 71.8453 112.361C71.1182 112.213 70.343 112.454 69.8241 112.972C69.7184 113.078 69.6255 113.19 69.5454 113.315C69.4622 113.437 69.3949 113.565 69.3372 113.703C69.2828 113.837 69.2379 113.978 69.2091 114.122C69.1803 114.267 69.1675 114.414 69.1675 114.558C69.1675 115.151 69.4045 115.727 69.8241 116.144C70.2405 116.563 70.8171 116.8 71.4097 116.8C71.5538 116.8 71.7011 116.787 71.8453 116.759C71.9894 116.73 72.1304 116.685 72.2649 116.63C72.4026 116.573 72.5308 116.506 72.6525 116.422C72.7774 116.342 72.8895 116.249 72.9952 116.144C73.4116 115.727 73.6519 115.151 73.6519 114.558C73.6519 114.414 73.6358 114.267 73.607 114.122C73.5782 113.978 73.5365 113.837 73.4789 113.703Z" fill="#7C6A0A"/>
<path d="M47.7449 111.24C46.5053 111.24 45.5027 112.242 45.5027 113.482C45.5027 114.721 46.5053 115.724 47.7449 115.724H50.6885C51.9282 115.724 52.9307 114.721 52.9307 113.482C52.9307 112.242 51.9282 111.24 50.6885 111.24H47.7449Z" fill="#7C6A0A"/>
</svg>
